<?xml version="1.0" encoding="utf-8"?>
<!-- Generator: Adobe Illustrator 25.3.1, SVG Export Plug-In . SVG Version: 6.00 Build 0)  -->
<svg version="1.1" id="Ebene_1" xmlns="http://www.w3.org/2000/svg" xmlns:xlink="http://www.w3.org/1999/xlink" x="0px" y="0px"
	 viewBox="0 0 190.1 131.1" style="enable-background:new 0 0 190.1 131.1;" xml:space="preserve">
<style type="text/css">
	.st0{fill:#1FAD66;}
</style>
<path class="st0" d="M33.6,119.3C33.6,119.3,33.6,119.3,33.6,119.3C33.6,119.3,33.6,119.3,33.6,119.3L33.6,119.3z"/>
<path class="st0" d="M31.4,38c0,0.1-0.4,1-0.3,0.9c0.1-0.1-0.7,1.8-0.8,2.1c-0.1,0.2,0.1-0.1,0,0.3c0,0.1-0.1,0.4-0.2,0.6
	c-0.1,0.4-0.2,0.7-0.3,0.8c-0.1,0.1,0.1-0.4-0.3,0.8c-0.2,0.5-0.4,1.1-0.4,1.3c-0.1,0.6-0.1,0.7,0,0.6c0,0,0,0.1,0,0.1l0,0
	c0,0.1-0.1,0.2-0.1,0.3c0,0,0,0.1,0,0.1c-0.1,0.3-0.2,0.8-0.2,1c0,0.2-0.1,0.3,0,0.8c0.1,0.4,0.1,1.2,0.9,2.3
	c0.1,0.2,0.4,0.5,0.6,0.7c0.3,0.2,0.5,0.4,0.7,0.6c1.3,0.9-0.6-0.3,0.1,0.2c0.3,0.2,0.9,0.6,1.4,0.7c0.5,0.2,0.9,0.2,0.5,0.2
	c-0.8-0.2,0.3,0.3,1.5,0.3c0.5,0,1.3,0,2.1-0.3c0.8-0.2,1.7-0.7,2.4-1.2c1.2-0.9,2.1-2.2,2.5-3.7c0.2-0.7,0.4-1.5,0.6-2.2
	c0.1-0.4,0.2-0.8,0.3-1.1c0.1-0.4,0.2-0.7,0.4-1.1c0.7-1.9,1.6-3.8,2.5-5.6c0.3-0.6,0.7-1.2,1-1.9c0.3-0.6,0.8-1.2,1.2-1.8
	c0.8-1.2,1.6-2.5,2.3-3.7c0-0.1,0.1-0.2,0.1-0.2c0.7-1.3,1.3-2.7,2.1-3.9c0.8-1.2,1.8-2.3,2.7-3.4c0.8-0.9,1.5-2,2.3-3l2.2-3
	c0.8-1,1.5-2,2.2-3c0.4-0.5,0.7-1,1.1-1.6c0.2-0.3,0.3-0.5,0.5-0.9c0.1-0.2,0.2-0.5,0.3-0.7c0-0.2,0-0.4-0.2-0.6
	c-0.2-0.2-0.4-0.2-0.7-0.2c-0.2,0-0.5,0.2-0.7,0.3c-0.2,0.1-0.3,0.2-0.4,0.3c-0.2,0.1-0.4,0.3-0.6,0.4c0,0,0-0.1,0.1-0.1
	C61.3,9.9,61.7,9.5,62,9c0.4-0.5,0.8-1.1,1-1.7c0.6-1,0.7-2.8-0.4-4.1c-0.8-0.8-1.3-1.1-2-1.3c0.8,0.3,0.6,0.2,0.2,0
	c-0.4-0.2-1-0.2-1.2-0.2c-0.5,0-0.9,0.1-1.3,0.2C58.2,2,58,2.1,58,2.1c-0.1,0-0.3,0.1-0.4,0.1c-0.2,0.1-0.5,0.2-0.7,0.3
	c-0.5,0.2-0.9,0.5-1.3,0.9c-0.7,0.7-1.4,1.4-2.1,2.1c-1.6,1.6-3,3.2-4.5,4.9c-0.5,0.6-0.9,1.1-0.9,1.2c0,0-0.1,0.2-0.3,0.4
	c-0.2,0.2-0.4,0.4-0.5,0.6l-0.3,0.4c-0.6,0.8-0.6,0.7-0.9,1.1c-1.3,1.8-2,2.7-2.9,3.9c-0.2,0.3-0.4,0.5-0.7,0.9
	c-1.2,1.7-2.2,3.1-3.2,4.7c-0.1,0.2-0.3,0.5-0.5,0.8c-1.2,1.9-2.4,4-3.5,6c-1.1,2-2.1,4-3.1,6.1C31.7,37.2,31.4,38,31.4,38z"/>
<path class="st0" d="M34.9,118.9C34.9,118.9,34.9,118.9,34.9,118.9C34.9,118.9,34.9,118.9,34.9,118.9L34.9,118.9z"/>
<path class="st0" d="M64.2,110.8C64.2,110.8,64.2,110.8,64.2,110.8C64.2,110.8,64.2,110.8,64.2,110.8L64.2,110.8z"/>
<path class="st0" d="M65.6,110.6L65.6,110.6C65.7,110.6,65.7,110.6,65.6,110.6L65.6,110.6z"/>
<path class="st0" d="M60.4,21.3c-1.4,1.9-2.9,4-4.2,5.9c-1.3,2-2.5,4-3.7,6.2c-0.5,0.9-0.9,1.7-0.9,1.7c0,0.1-0.4,1-0.3,0.9
	c0.1-0.1-0.9,1.9-0.9,2.1c-0.1,0.2,0.1-0.1-0.1,0.3c0,0.1-0.2,0.4-0.3,0.6c-0.2,0.4-0.3,0.7-0.4,0.8c-0.1,0.1,0.1-0.4-0.4,0.8
	c-0.2,0.5-0.5,1.1-0.5,1.3c-0.2,0.6-0.2,0.7,0,0.6c0,0,0,0.1,0,0.1l0,0.1c-0.1,0.2-0.1,0.4-0.2,0.6c-0.1,0.3-0.2,0.7-0.3,0.9
	c0,0.2-0.1,0.3-0.1,0.8c0,0.4,0,1.2,0.5,2.5c0.2,0.5,0.8,1.2,1.1,1.6c1.3,1.1-0.6-0.4,0.1,0.2c0.1,0.1,0.3,0.3,0.6,0.5
	c0.2,0.2,0.5,0.4,0.8,0.5c0.5,0.3,0.9,0.4,0.5,0.3c-0.8-0.4,0.3,0.3,1.5,0.6c0.5,0.1,1.4,0.2,2.3,0.1c0.9-0.1,2-0.4,2.8-0.8
	c1.4-0.7,2.6-1.8,3.4-3.2c0.4-0.7,0.7-1.5,0.8-2.3c0.2-0.8,0.4-1.6,0.7-2.4c0.7-2,1.7-3.9,2.6-5.9c0.3-0.7,0.7-1.3,1.1-2
	c0.4-0.6,0.7-1.3,1.2-1.9c0.4-0.6,0.9-1.2,1.3-1.8c0.4-0.6,0.8-1.3,1.2-1.9c0-0.1,0.1-0.2,0.2-0.2c0.9-1.3,1.6-2.7,2.4-4
	c0.8-1.3,1.9-2.4,2.9-3.5c0.9-1,1.9-1.9,2.8-3l2.7-3c0.9-1,1.8-2,2.7-3l1.3-1.6l0.6-0.8l0.3-0.4l0.2-0.3l0.2-0.4
	c0.1-0.3,0.1-0.5,0-0.8c-0.2-0.2-0.4-0.2-0.6-0.2c-0.2,0-0.5,0.1-0.8,0.2c-0.4,0.2-0.6,0.3-1,0.5c-0.1,0-0.1,0.1-0.1,0.1
	c0.3-0.3,0.6-0.6,0.9-0.8c0.4-0.4,1-0.9,1.3-1.5C87,6.2,87.1,6,87.1,5.9l0.1-0.2c0-0.1,0.1-0.2,0.1-0.2c0.2-0.3,0.3-0.6,0.4-1
	c0.1-0.7,0.1-1.5-0.3-2.3c-0.3-0.5-0.6-0.8-0.8-1.1c-0.3-0.3-0.6-0.5-0.9-0.7c0.2,0.1,0.4,0.2,0.4,0.2c0.1,0.1,0.1,0.1,0.1,0.1
	c0,0-0.2-0.1-0.4-0.2c-0.4-0.2-1.1-0.4-1.2-0.4c-0.5-0.1-1-0.1-1.5,0c-0.3,0-0.6,0.1-0.8,0.2l-0.2,0.1l-0.1,0l-0.1,0
	c-0.1,0-0.3,0.1-0.4,0.1c-0.5,0.2-1,0.5-1.4,0.8c-0.8,0.7-1.6,1.3-2.4,2c-1.8,1.5-3.5,3-5.2,4.6C71.9,8.4,71.3,9,71.4,9
	c0,0-0.2,0.2-0.4,0.4c-0.2,0.2-0.4,0.4-0.6,0.6L70,10.4c-0.7,0.7-0.7,0.6-1,1c-1.6,1.7-2.4,2.6-3.5,3.7c-0.3,0.3-0.4,0.5-0.8,0.9
	c-1.4,1.7-2.6,3.1-3.8,4.6C60.8,20.8,60.5,21.1,60.4,21.3z"/>
<path class="st0" d="M87.4,20.4c-0.1,0-0.4,0-0.5,0c-0.4,0-0.8,0.1-1.1,0.2c-0.6,0.2-1.1,0.5-1.5,0.8c-0.5,0.4-0.8,0.8-1.2,1.1
	c-0.8,0.8-1.6,1.6-2.4,2.4c-1,1.1-2,2.3-3,3.4c-1.3,1.7-2.7,3.4-3.8,5.2c0,0.1-0.1,0.1-0.1,0.2c-1.2,1.8-2.3,3.8-3.3,5.7
	c-0.9,1.7-1.8,3.5-2.5,5.3c-0.4,0.9-0.8,1.8-1.2,2.7c-0.4,0.9-0.8,1.8-1,2.8c-0.3,1.3-0.1,2.9,0.7,4.2c0.2,0.3,0.5,0.7,0.7,0.9
	c0.2,0.3,0.5,0.6,0.8,0.9c0.6,0.5,1.3,0.9,2.1,1.1h0c0.8,0.3,1.2,0.3,1.8,0.4c0.4,0,0.7,0,1.2,0c1,0,2-0.3,2.9-0.7
	c0.9-0.4,1.6-1.1,2.2-1.8c0.4-0.5,0.6-0.8,0.8-1.1c-0.6,0.9,0.3-0.4,0.4-0.5l0,0c0.1-0.3,0.3-0.6,0.4-0.8l0,0c0.6-1.3,1-2.9,1.5-4.2
	c0.3-0.8,0.7-1.5,1.1-2.2c0.4-0.7,0.7-1.5,1.1-2.3c0.1-0.2,0.2-0.5,0.3-0.7c0.1-0.2,0.1-0.3,0.1-0.4c0,0,0-0.2,0.1-0.4
	c0.1-0.2,0.1-0.4,0.2-0.6l0.1-0.4c0.2-0.7,0.2-0.6,0.4-0.9c0.3-0.7,0.6-1.2,1-1.7c0.3-0.4,0.6-0.8,1-1.3c0.2-0.2,0.3-0.4,0.5-0.7
	c0.8-1.3,1.5-2.4,2.3-3.6c0.1-0.1,0.2-0.4,0.4-0.6c0.5-0.7,0.9-1.4,1.4-2.2c0.2-0.4,0.4-0.8,0.6-1.2l0.1-0.3l0.1-0.2l0.1-0.2
	c0.1-0.4,0.2-0.8-0.1-1.1l-0.1-0.1c-0.3-0.2-0.6-0.3-1.1-0.1c-0.1,0-0.2,0.1-0.3,0.1L90.3,28L90,28.1c-0.3,0.2-0.5,0.4-0.8,0.6
	c0-0.1,0.1-0.1,0.1-0.2c0.2-0.3,0.5-0.7,0.6-0.8c0.2-0.3,0.2-0.5,0.1-0.4l0,0c0.1-0.1,0.1-0.1,0.1-0.2c0.2-0.2,0.4-0.5,0.5-0.7
	c0.1-0.1,0.1-0.2,0.3-0.5c0.1-0.2,0.5-0.7,0.6-1.5c0.1-0.3,0-0.9-0.1-1.3c-0.4-1.1,0.2,0.4,0-0.2c-0.1-0.2-0.3-0.8-0.6-1.1
	c-0.3-0.3-0.5-0.5-0.3-0.4c0.5,0.5-0.1-0.3-1-0.8c-0.4-0.2-1-0.4-1.8-0.4C87.7,20.4,87.5,20.4,87.4,20.4z"/>
<path class="st0" d="M46.1,98.5c6.5-2,12.3-5.5,17.1-10c1-1,1.9-1.9,2.6-2.7c0.6-0.7,1-1.2,1-1.3c0.1-0.1,1.8-2.5,1.5-2.2
	c-0.1,0.2,0.7-1,1.4-2.4c0.8-1.4,1.4-2.9,1.5-3.2c0.2-0.7-0.1,0.2,0.2-0.9c0.1-0.1,0.4-1.1,0.6-1.8c0.3-1.2,0.4-2,0.5-2.4
	c0-0.2,0,0.1,0,0c0-0.1,0-0.2,0.1-0.6c0-0.4,0.1-1,0-2.1c-0.1-0.9-0.3-1.8-0.6-2.6c-0.3-0.8-0.7-1.3-0.8-1.5
	c-0.9-1.1-1.4-1.5-1.4-1.4c0,0,0.1,0.1,0.2,0.3c-0.1-0.1-0.2-0.2-0.3-0.3c-0.4-0.4-0.8-0.7-1.3-1c-0.4-0.3-0.9-0.5-1.3-0.8
	c-0.6-0.4-1.2-0.6-1.6-0.8c-0.4-0.2-1-0.4-2.3-0.7c-1.3-0.3-3.4-0.6-6.8-0.4c-1.3,0-3.5,0.4-4.6,0.5c-4,0.5,1.7-0.2-0.5,0
	c-1.7,0.1-7.2,1.3-5.5,0.9c1-0.2,0.8-0.2,0-0.1c-0.4,0.1-1,0.2-1.7,0.3c-0.7,0.2-1.4,0.5-2.1,0.9c-0.5,0.4-1.1,1-1.6,2
	c-0.2,0.5-0.4,1-0.4,1.7c0,0.3,0.1,0.7,0.2,1c0.1,0.2,0.1,0.6,0.2,0.9c0.2,0.7,0.5,1.4,1.1,2.1c0.6,0.6,1.3,1.1,2,1.4
	c0.8,0.3,1.6,0.4,2.3,0.4c0.7-0.1,1.4-0.1,2.1-0.2c1.1-0.1,2.2-0.2,3.3-0.3c1.1-0.1,2.2-0.1,3.4-0.1c1.1,0,2.2,0,3.4,0.1
	c0.3,0,0.6,0.1,0.8,0.1c0.1,0,0.3,0.1,0.4,0.1l0.1,0c0.1,0,0,0.1,0,0.1c-0.1,0.2-0.2,0.5-0.3,0.7c-1,1.8-2.5,3.4-4.2,4.8
	c-1.7,1.4-3.6,2.5-5.7,3.5c-1.3,0.6-2.7,1.2-4.2,1.6c-0.7,0.2-1.4,0.4-2.2,0.7c-0.3,0.1-0.7,0.2-1.1,0.2L40.6,83
	c-0.8,0.1-1.6,0.2-2.3,0.2l-2.4,0c-0.8,0-1.6,0-2.4-0.1c-0.4,0-0.8-0.1-1.2-0.1L31,82.8c-2.2-0.4-4.5-0.9-6.7-2
	c-2.1-1-4.1-2.6-5.5-4.6s-2.1-4.2-2.4-6.5c-0.1-1.1-0.1-2.2,0-3.3c0-1.1,0.2-2.1,0.4-3.2c0-0.2,0.1-0.6,0.1-0.8
	c0.2-1.1,0.4-2.2,0.5-3.3c0.2-1.1,0.4-2.2,0.7-3.3l0.4-1.6l0.4-1.6c0.3-1.1,0.6-2.1,0.9-3.2c1.3-4.2,3.1-8.1,5.1-11.8
	c1.1-2.1,2.3-4,3.5-6l1.8-2.9l0.5-0.7l0.6-1c0.2-0.4,0.5-0.9,0.5-1.1c0.1-0.3,0-0.4-0.1-0.7c-0.2-0.1-0.3-0.1-0.4-0.1
	c-0.1,0-0.2,0-0.4,0.1c-0.3,0.2-0.7,0.5-1.1,0.9l-0.5,0.5L29.2,27l-0.7,0.7c-0.9,1-1.7,2-2.5,3c-1.6,2.1-3.1,4.2-4.4,6.4
	c-1.6,2.7-3.1,5.6-4.3,8.5c0.9-2.3,1.3-3.3,2.1-5c0.6-1.2,1-2.1,1.9-3.7c1.8-3.1,3.7-6,5.8-8.8l1.6-2.1l0.8-1
	c0.1-0.2,0.3-0.3,0.4-0.6l0.3-0.5c0.8-0.6,1.1-1.6,1.1-2.7c-0.1-0.5-0.2-1.1-0.6-1.6c-0.3-0.5-0.8-0.9-1.3-1.1
	c-0.7-0.4-1.4-0.4-1.9-0.4c0,0-0.1,0-0.1,0c-0.1,0-0.1,0-0.2,0c-0.1,0-0.3,0-0.4,0c-0.3,0-0.5,0-0.7,0c-0.9,0.1-1.7,0.4-2.4,0.9
	c0.4-0.3,0.8-0.5,1-0.6c0.2-0.1,0.3-0.1,0.3-0.1c0,0-0.4,0.1-0.9,0.4c-0.5,0.3-1,0.8-1.4,1.2c-0.4,0.4-0.7,0.7-0.7,0.8l0.1-0.1
	c-0.8,0.9-1.6,1.8-2.3,2.6l0.1-0.1C16,27.3,12.5,32,9.7,37C6.5,42.7,4,48.7,2.3,55.1c-0.3,1-0.5,2.1-0.7,2.9
	c-0.2,0.8-0.3,1.4-0.3,1.4c0,0,0,0.2-0.1,0.4c-0.1,0.3-0.1,0.6-0.2,1c-0.2,0.8-0.3,1.7-0.4,2.4c-0.1,0.6-0.2,1.1-0.2,1.7
	c-0.2,1.5-0.3,2.2-0.3,2.6C0,68.1,0,68.4,0,69.2c0,3.4,0.4,6.2,1,8.6c0.6,2.4,1.5,4.5,2.8,6.8C4.5,85.8,5,86.5,6.1,88
	c0.7,0.8,1.4,1.6,2.1,2.3l0,0c1.9,2.3,4.1,4.1,6.4,5.6s4.7,2.6,7.3,3.4c0.7,0.2,1.9,0.6,2.8,0.8c3.7,0.8,7.4,1,11,0.6
	C39.4,100.2,42.9,99.5,46.1,98.5z"/>
<path class="st0" d="M147.3,92.8c0.1,0.1,0.2,0.1,0.2,0.2C147.4,92.9,147.3,92.9,147.3,92.8z"/>
<path class="st0" d="M88.1,99.9c2,0,3.9-0.7,5.4-1.8c0.4-0.3,0.7-0.6,1-0.9s0.7-0.6,0.9-1c0.6-0.7,1.1-1.5,1.5-2.3
	c0.1-0.1,0.1-0.2,0.1-0.2l0.2-0.4c0,0,0,0.1-0.1,0.1c0.5-0.9,1-1.9,1.4-2.9c0.2-0.6,0.4-1.3,0.7-1.9l0.3-1c0.1-0.3,0.2-0.7,0.2-1
	c0.3-1.2,0.6-2.4,0.8-3.6l0.4-1.8l0.5-1.8c0.7-2.4,1.4-4.7,2.1-7.1c1-3.8,2.1-7.9,2.9-11.7l0,0.1l0-0.1c0.2-0.9,0.3-1.6,0.7-3.2
	c0.2-1.1,0.6-2.2,0.9-3.5s0.7-2.7,1.1-4.2c0.3-1.1,0.6-2.2,0.9-3.3c0.3-1.1,0.6-2.3,0.9-3.4c0.3-1.1,0.6-2.2,1-3.4
	c0.2-0.5,0.4-1.1,0.6-1.6s0.4-1.1,0.7-1.6c0.1-0.1,0.2-0.3,0.2-0.3c0.2-0.3,0.5-0.9,1.1-1.5c0.3-0.3,0.6-0.7,0.8-1.2
	c0.1-0.2,0.1-0.5,0.2-0.7c0-0.1,0-0.2,0-0.4c0-0.2,0-0.4-0.1-0.6c-0.1-0.3-0.2-0.6-0.4-0.8c-0.1-0.2-0.3-0.3-0.4-0.3
	c-0.1,0-0.2,0-0.3,0c-0.1,0-0.1,0-0.1,0.1c-0.1,0-0.1,0.1-0.2,0.2c-0.1,0.2-0.1,0.8-0.1,0.9c0,0.2,0,0.2-0.1,0.2c0,0,0,0.1,0,0.1
	c-0.1,0.3-0.1,0.3-0.3,0.5c-0.1,0.1-0.4,0.3-0.7,0.6c-0.2,0.1-0.4,0.3-0.5,0.4c-0.1,0.2-0.3,0.3-0.4,0.4c-0.2,0.2-0.3,0.4-0.4,0.6
	c0.1-0.2,0.3-0.4,0.4-0.6c-0.6,0.6-1.1,1.5-1.6,2.6l0,0c-0.1,0.3-0.3,0.7-0.5,1.1c-0.2,0.4-0.3,0.8-0.5,1.2
	c-0.2,0.8-0.5,1.6-0.8,2.5c0.6-2.1,0.6-2.2,0.7-2.5l-0.2,0.8c0-0.1,0.1-0.5,0.2-0.8c-0.3,0.8-0.3,0.7-0.1,0c0.1-0.4,0.6-2.1,0.8-2.6
	c0.6-1.5,1.3-3.2,2.6-4.6c0.1-0.2-0.1,0-0.2,0.2c-0.2,0.2-0.4,0.5-0.3,0.3c0.6-0.8,0.5-0.7,0.1-0.3c-0.1,0.1-0.1,0.1-0.1,0.2
	c0.2-0.2,0.3-0.4,0.5-0.6l0.1-0.1c0.1-0.1,0.4-0.3,0.7-0.5c0.4-0.4,0.6-0.6,0.7-1c0.1-0.4,0-0.9-0.6-1.6c-0.4-0.4-0.7-0.6-0.7-0.6
	c0,0,0.1,0.1,0.3,0.2c-0.4-0.3-0.6-0.4-0.6-0.5c-0.1-0.1-0.1-0.1-0.1-0.1c-0.1,0-0.2-0.1-0.6-0.3c-0.4-0.2-1.1-0.4-2.3-0.4
	c-0.1,0-0.1,0,0,0c2,0.2-0.2-0.3-2.3,0.2c-1.4,0.2-2.7,0.8-3.8,1.5c-1.1,0.7-2.1,1.6-3,2.6c-0.9,1-1.6,2.2-2.1,3.4s-1,2.5-1.4,3.8
	c-1.6,5.2-2.8,10.6-3.9,15.8c-0.4,1.8-0.8,3.5-1.1,5.3l0,0.1l0,0l0-0.1c-0.4,1.6-0.8,3.3-1.3,4.9c0,0,0,0,0-0.1
	c-0.1,0.3-0.1,0.6-0.2,0.8c-0.7,2.7-1.4,5.4-1.9,8.3c-0.1,0.7-0.3,1.4-0.5,2.1c-0.2,0.7-0.4,1.3-0.6,2c-0.4,1.3-0.9,2.7-1.4,4
	c-0.6,1.6-1.3,3.3-2.1,4.9c-0.4,0.8-0.9,1.5-1.4,2.2c-0.3,0.3-0.6,0.6-0.9,0.9c-0.3,0.3-0.7,0.5-1,0.8c-0.8,0.6-1.4,1.4-1.7,2.4
	c-0.2,1.1,0.1,2.2,0.6,3.1l0-0.1c0,0.1,0.1,0.2,0.1,0.2l-0.1-0.1c1.3,2.3,3.7,3.6,5.9,4.1C86.4,99.8,87.2,99.9,88.1,99.9z
	 M108.1,43.6c-0.1,0.6-0.3,1.2-0.4,1.8c0-0.2,0.1-0.4,0.1-0.6c0.1-0.5,0.2-0.9,0.3-1.4c0-0.2,0.1-0.3,0.1-0.4
	C108.2,43.2,108.2,43.4,108.1,43.6z M108.6,41.7L108.6,41.7L108.6,41.7C108.6,41.7,108.6,41.7,108.6,41.7z"/>
<path class="st0" d="M112.8,68.4c-0.1,0.6-0.2,1.1-0.2,1.1c0,0.1-0.3,2-0.4,3l-0.2,1.3c-0.3,2.3-0.3,2.1-0.4,3.3
	c-0.2,2.6-0.3,4.7-0.3,6.5s0.1,3.5,0.3,5.4c0.1,1,0.2,1.6,0.6,2.9c0.3,1.3,0.8,2.6,1.5,3.7c0.7,1.1,1.5,2.2,2.6,3
	c1.1,0.8,2.4,1.1,3.5,1.2s2.3,0.1,3.4-0.2l-0.1,0c0,0,0,0,0.1,0l0.1,0l-0.1,0c0.5-0.1,1.4-0.4,2-0.7c1.2-0.5,2.3-1.3,3.3-2.2
	c1-0.9,1.9-1.8,2.8-2.9c1.7-2,3.1-4.3,4.3-6.6c2.4-4.5,4.1-9.5,5.9-14.4c0.4-1.1,0.7-2.1,0.9-2.8c0.2-0.7,0.4-1.2,0.4-1.2
	c0,0,0-0.1,0.1-0.3c0,0,0-0.1,0-0.1l0,0.1c0.2-0.5,0.7-1.8,0.6-1.6c-0.1,0.3,1.6-4.1,1.7-4.6c0.2-0.5-0.1,0.2,0.2-0.7
	c0-0.1,0.3-0.9,0.5-1.4c0.3-0.9,0.5-1.4,0.6-1.7c0.1-0.3-0.3,0.9,0.7-1.9c0.4-1.2,0.9-2.5,1-2.8c0.4-1.2,0.4-1.5,0.2-1.1
	c0-0.1,0-0.1,0.1-0.2c0.1-0.4,0.3-0.9,0.5-1.3c0.2-0.7,0.5-1.4,0.7-1.8c0.1-0.3,0.3-0.7,0.6-1.6c0.3-0.9,0.7-2.3,1.5-4.7
	c0.1-0.4,0.4-1.1,0.6-1.7c0.2-0.6,0.5-1.1,0.7-1.5c1.3-2.7-0.5,1.1,0.2-0.3c0.1-0.3,0.3-0.7,0.6-1.2c0.3-0.5,0.6-0.9,0.9-1.3
	c0.3-0.4,0.6-0.7,0.8-0.8c0.2-0.2,0.2-0.2-0.1,0.1c-0.5,0.6-0.4,0.5,0.1,0.1c0.2-0.2,0.6-0.6,0.8-1.1c0.1-0.2,0.2-0.5,0.2-0.9l0-0.1
	c0-0.1,0-0.1,0-0.2c0-0.1,0-0.3-0.1-0.4c-0.1-0.2-0.1-0.5-0.3-0.7c-0.1-0.1-0.1-0.2-0.3-0.3c-0.1-0.1-0.3-0.2-0.5-0.2
	c-0.1,0.1-0.1,0.1-0.2,0.2c0,0.1-0.1,0.1-0.1,0.2c0,0.1,0,0.3,0,0.5c0,0.2,0,0.4-0.1,0.4c0,0.1-0.1,0.1-0.1,0.2
	c-0.1,0.1-0.1,0.2-0.3,0.3c-0.2,0.2-0.6,0.4-0.9,0.6c-0.3,0.2-0.7,0.5-1,0.8c-0.8,0.7-1.4,1.7-1.9,2.6c0-0.1,0-0.1,0.1-0.2
	c0.4-1.2,0.8-2.5,1.3-3.6c0.3-0.6,0.6-1.1,1-1.6c0.2-0.3,0.4-0.6,0.5-1c0.1-0.5-0.2-1-0.5-1.3c-1-1.1-2.4-1.6-3.7-1.9
	c-1.3-0.3-2.6-0.2-3.9,0c-0.6,0.1-1.2,0.3-1.8,0.5c-0.6,0.2-1.1,0.5-1.6,0.9c-0.9,0.8-1.5,1.9-1.9,3c-1,3.2-2,6.4-3.1,9.6
	c-0.9,3.2-1.8,6.5-2.7,9.7c-0.1,0.2-0.1,0.4-0.2,0.6c-1.8,6.6-3.7,13.3-5.5,19.8c-0.4,1.3-0.7,2.6-1.1,4c-0.4,1.3-0.8,2.6-1.3,3.9
	l-1.3,3.9c-0.2,0.6-0.5,1.2-0.8,1.8c-0.2,0.3-0.4,0.6-0.6,0.8c-0.1,0.1-0.2,0.2-0.3,0.3c0,0-0.1,0-0.1,0.1l-0.1,0.1l-0.1,0.1
	l-0.2-0.1c-0.1,0-0.1-0.1-0.1-0.1c0,0,0,0-0.1-0.1c-0.1-0.1-0.2-0.3-0.2-0.5c-0.1-0.4-0.2-0.8-0.2-1.2c-0.1-0.8,0-1.7,0-2.5
	c0.1-1.7,0.3-3.3,0.5-5c0.2-1.6,0.5-3.3,0.8-4.9c0.3-1.6,0.6-3.2,0.9-4.9c0.3-1.9,0.8-3.8,1.2-5.7c0.4-1.9,0.9-3.8,1.3-5.7
	c0.4-1.9,1-3.8,1.5-5.7c0.5-1.9,1.1-3.7,1.6-5.6l0,0c0.6-2.2,0.9-3,1.4-4.5c0.4-1,0.6-1.7,1.1-3.1c0.5-1.3,1-2.6,1.6-3.9l0.4-1
	c0.1-0.3,0.3-0.7,0.2-1.2c0-0.4-0.3-0.9-0.6-1.3c-0.3-0.3-0.7-0.6-1-0.8c-0.7-0.4-1.5-0.7-2.3-0.9c-0.8-0.2-1.6-0.2-2.3-0.2
	c-0.8,0-1.5,0.2-2.2,0.4c-0.7,0.2-1.4,0.5-1.9,0.9c-0.8,0.6-1.2,1.3-1.5,1.8c-0.3,0.6-0.5,1.1-0.8,1.7c1.3-3-0.7,1.5-0.7,1.7l0-0.1
	c-0.3,0.9-0.7,1.7-1,2.6l0-0.1c-0.4,1-0.7,2.1-1.1,3.2c-0.3,1.1-0.7,2.2-1,3.3c-0.4,1.1-0.7,2.2-1,3.3l-0.5,1.6
	c-0.1,0.6-0.3,1.1-0.4,1.7c-1.3,5-2.8,10-3.7,15C113.1,66.9,113,67.8,112.8,68.4z"/>
<path class="st0" d="M160.3,48.3c-0.3,1.3-0.6,2.6-1,3.9c-0.7,2.6-1.5,5-2.3,7.5c-1.4,4.3-2.9,8.8-4.3,13.1l-1.3,3.2
	c-0.2,0.5-0.4,1.1-0.6,1.6l-0.6,1.6c-0.3,1.1-0.6,2.2-0.9,3.4c-0.2,1.1-0.5,2.3-0.7,3.4c-0.2,1.5-0.4,3-0.2,4.6
	c0.1,1.6,0.5,3.3,1.4,4.8c0.8,1.5,2.2,2.9,3.8,3.7c0.8,0.4,1.6,0.7,2.5,0.8c0.4,0.1,0.8,0.1,1.2,0.2l0.6,0l0.3,0l0.3,0h0
	c1.8-0.1,2.5-0.3,3.8-0.4c0.9-0.1,1.5-0.2,2.6-0.3c1.1-0.1,2.3-0.2,3.4-0.4c1.1-0.1,2.2-0.4,3.2-1c1-0.5,1.8-1.2,2.5-2
	c0.7-0.8,1.2-1.8,1.6-2.8c0.6-1.4,0.9-2,1.1-3.1c-0.3,1.3-0.2,0.9,0,0.3c0.1-0.3,0.2-0.8,0.2-1.2c0-0.3,0-0.6-0.1-0.7
	c0-0.2-0.1-0.4-0.2-0.6c-0.1-0.2-0.4-0.5-0.6-0.6c-0.4-0.2-0.9-0.3-1.2-0.4c-3.7-0.1-7.3,0.6-11,0.7c-0.2,0-0.5,0-0.7,0
	c-0.2,0-0.4-0.2-0.6-0.3c-0.3-0.3-0.4-0.7-0.4-1.2c0-0.4,0.1-0.9,0.2-1.4l0.3-1.5c0.4-1.9,0.9-3.8,1.5-5.7c0.2-0.6,0.4-1.2,0.5-1.7
	s0.2-0.8,0.2-0.8c0,0,0-0.1,0.1-0.2c0-0.1,0.1-0.4,0.2-0.6c0.1-0.5,0.3-1,0.4-1.4l0.3-0.9c0.1-0.5,0.2-0.8,0.3-1
	c0-0.1,0.1-0.2,0.1-0.3c0,0,0,0,0,0c0,0,0.3,0,0.7,0c1,0,1.9,0,2.8-0.1c0.9-0.1,1.6-0.3,2.2-0.6c1.2-0.6,2.1-1.4,3.1-2.4
	c0.5-0.5,0.8-0.9,1.3-1.7c0.5-0.8,0.9-1.6,1.1-2.5c0.3-0.9,0.4-1.8,0.3-2.7c-0.1-0.5-0.2-1.1-1-1.5c-0.4-0.1-0.6-0.1-0.9,0
	c-0.2,0-0.4,0.1-0.6,0.2c-0.8,0.3-1.5,0.6-2.3,0.9c-0.2,0.1-0.4,0.1-0.6,0.2c0,0,0,0,0,0c-0.1-1.3-0.3-2.7-0.4-4l0.2-1l0.2-1
	c0.1-0.7,0.2-1.4,0.4-2.1c0.2-1.4,0.4-2.8,0.5-4.2c0-0.4,0.1-0.9,0.1-1.4c0-0.5-0.1-1-0.1-1.4c-0.1-0.8-0.1-1.6-0.1-2.4l0,0l0,0
	l0.5,0c0.3,0,0.6,0,0.9,0l1.8,0c1.2,0,2.4,0,3.6,0c0.9,0,1.8-0.1,2.4-0.2c0.6-0.1,1-0.2,1-0.2c0.1,0,1.9-0.5,1.6-0.5
	c-0.1,0,0.7-0.2,1.6-0.7c0.8-0.5,1.5-1.3,1.6-1.4c0.2-0.3-0.1,0.1,0.2-0.5c0.1-0.1,0.4-0.6,0.6-1c0.3-0.6,0.6-1,0.7-1.2
	c0.1-0.1,0,0.1,0,0c0-0.1,0.2-0.3,0.6-1.5c0.2-1,0-2.2-0.1-2.5c-0.2-0.8-0.5-1.1-0.5-1c0,0,0,0.1,0,0.2c0-0.1-0.1-0.1-0.1-0.2
	c-0.2-0.3-0.3-0.6-0.5-0.8c-0.2-0.2-0.4-0.5-0.6-0.7c-0.3-0.3-0.7-0.6-0.9-0.6c-0.1,0-0.2,0-0.2,0.1c0,0.1,0,0.2,0.1,0.2
	c0.1,0.2,0.2,0.5,0.5,0.9c0.2,0.4,0.4,0.8,0.6,1.5c0.2,0.6,0.2,1.5-0.1,2.4c-0.2,0.7-1,1.7-1.3,2.2c-0.7,0.9-0.6,0.7-0.3,0.4
	c0.2-0.3,0.5-0.7,0.1-0.2c-0.3,0.4-0.9,1.2-1.6,1.6c-0.7,0.4-1.2,0.5-0.7,0.3c0.5-0.3,0.4-0.2,0-0.1c-0.2,0.1-0.6,0.2-0.9,0.2
	c0.1-0.1,0.1-0.1,0.2-0.1c0.9-0.7,1.7-1.5,2.4-2.5c0.7-1.1,1.3-2.3,1.4-3.7c0.1-0.7,0-1.4-0.2-2.2c-0.1-0.4-0.4-0.8-0.8-1.1
	c-0.4-0.3-0.8-0.4-1.2-0.4c-0.4-0.1-0.7,0-1.1,0l-1.1,0c-0.7,0-1.4,0-2.1,0c-1.4,0-2.9,0-4.4,0c-1.9,0-3.8,0-5.7,0l-2.9,0l-1.4,0
	c-0.5,0-1,0-1.5,0.2c-1.1,0.3-1.8,1.1-2.5,1.8c-0.7,0.7-1.3,1.6-1.8,2.5s-0.9,1.9-1.1,3c-0.1,0.5-0.2,1.1-0.1,1.7
	c0,0.3,0.1,0.6,0.2,0.9c0.1,0.2,0.2,0.3,0.3,0.5c0.1,0.1,0.3,0.3,0.3,0.3c0,0,0.1,0.2,0.1,0.3c0,0.1,0.1,0.3,0.1,0.4
	c0.1,0.3,0.1,0.5,0.1,0.8c0.1,0.5,0.1,1.1,0.1,1.6c0,0.1,0,0.3,0,0.5C160.8,45.7,160.6,47,160.3,48.3z"/>
<g>
	<path class="st0" d="M21.5,114.1v16.7h-3.2v-16.7H21.5z"/>
	<path class="st0" d="M30.3,130.8v-16.7h2.3l10.2,11.1v-11.1h3.2v16.7h-2.2l-10.2-11.1v11.1L30.3,130.8L30.3,130.8z"/>
	<path class="st0" d="M70.4,114.1c1.9,0,3.2,0.2,4.4,1.3c1.3,1.2,1.7,2.8,1.7,4c0,0.6-0.1,2.4-1.4,3.7c-0.9,0.9-2.3,1.5-4.2,1.5
		h-2.1v6.2h-3.2v-16.7L70.4,114.1L70.4,114.1z M68.8,121.8h1.3c0.6,0,1.4,0,2.1-0.5c0.6-0.5,0.9-1.2,0.9-1.9c0-0.9-0.4-1.6-0.9-1.9
		c-0.7-0.5-1.5-0.5-2.3-0.5h-1.1L68.8,121.8L68.8,121.8z"/>
	<path class="st0" d="M87.2,114.1v10.5c0,1.3,0.4,2.1,0.8,2.5c0.5,0.6,1.4,1.1,2.6,1.1c1.3,0,2.2-0.6,2.6-1.1
		c0.4-0.4,0.8-1.2,0.8-2.5v-10.5h3.2v10.2c0,1.6-0.2,3.2-1.2,4.4c-1.2,1.6-3.3,2.4-5.4,2.4s-4.2-0.8-5.4-2.4c-1-1.3-1.2-2.9-1.2-4.4
		v-10.2H87.2z"/>
	<path class="st0" d="M110.3,114.1c0.9,0,2.7,0,4.1,1.1c1,0.8,1.6,2.1,1.6,3.4c0,2.1-1.4,3-1.9,3.3c1.1,0.2,1.8,0.6,2.2,1.1
		c1,0.9,1.2,2.2,1.2,3.1c0,1-0.3,2.3-1.4,3.4c-1.2,1.1-2.8,1.4-4.2,1.4h-5.6v-16.7L110.3,114.1L110.3,114.1z M109.4,121h0.9
		c0.5,0,2.5-0.1,2.5-2.2c0-1.5-1.2-2.1-2.5-2.1h-0.9V121z M109.4,128.1h1.4c0.6,0,1.5,0,2.2-0.4c0.8-0.5,1-1.3,1-1.9
		c0-0.5-0.2-1.4-1.2-1.9c-0.7-0.3-1.5-0.3-2.2-0.3h-1.2V128.1z"/>
	<path class="st0" d="M128.7,114.1V128h5.1v2.8h-8.4v-16.7H128.7z"/>
	<path class="st0" d="M144.3,114.1v16.7h-3.2v-16.7H144.3z"/>
	<path class="st0" d="M165.2,130.2c-1,0.5-2.3,1-4.1,1c-2.9,0-4.7-1-6.1-2.3c-1.9-1.8-2.7-3.9-2.7-6.4c0-3,1.2-5.2,2.7-6.5
		c1.7-1.6,3.8-2.2,6.1-2.2c1.2,0,2.6,0.2,4.1,1v3.8c-1.5-1.8-3.4-1.9-4-1.9c-3.4,0-5.5,2.8-5.5,5.8c0,3.7,2.9,5.7,5.6,5.7
		c1.6,0,2.9-0.7,3.9-1.8L165.2,130.2L165.2,130.2z"/>
</g>
</svg>
